<mxfile host="app.diagrams.net" modified="2023-05-22T19:08:22.838Z" agent="Mozilla/5.0 (Macintosh; Intel Mac OS X 10_15_7) AppleWebKit/537.36 (KHTML, like Gecko) Chrome/113.0.0.0 Safari/537.36" etag="1i4T5iOsXtKEJ9Cd_1Pk" version="21.3.2" type="device">
  <diagram id="C5RBs43oDa-KdzZeNtuy" name="Page-1">
    <mxGraphModel dx="1735" dy="1118" grid="1" gridSize="10" guides="1" tooltips="1" connect="1" arrows="1" fold="1" page="1" pageScale="1" pageWidth="827" pageHeight="1169" math="0" shadow="0">
      <root>
        <mxCell id="WIyWlLk6GJQsqaUBKTNV-0" />
        <mxCell id="WIyWlLk6GJQsqaUBKTNV-1" parent="WIyWlLk6GJQsqaUBKTNV-0" />
        <mxCell id="I_57XaFRziNIr_0MsJy--24" style="edgeStyle=orthogonalEdgeStyle;rounded=0;orthogonalLoop=1;jettySize=auto;html=1;entryX=0;entryY=0.5;entryDx=0;entryDy=0;endArrow=block;endFill=1;strokeColor=#FFFFFF;" edge="1" parent="WIyWlLk6GJQsqaUBKTNV-1" source="WIyWlLk6GJQsqaUBKTNV-3" target="I_57XaFRziNIr_0MsJy--5">
          <mxGeometry relative="1" as="geometry" />
        </mxCell>
        <mxCell id="WIyWlLk6GJQsqaUBKTNV-3" value="Проект создается в административной панели" style="rounded=1;whiteSpace=wrap;html=1;fontSize=14;glass=0;strokeWidth=1;shadow=0;spacingLeft=5;spacingRight=5;" parent="WIyWlLk6GJQsqaUBKTNV-1" vertex="1">
          <mxGeometry x="130" y="30" width="180" height="70" as="geometry" />
        </mxCell>
        <mxCell id="I_57XaFRziNIr_0MsJy--2" value="" style="edgeStyle=orthogonalEdgeStyle;rounded=0;orthogonalLoop=1;jettySize=auto;html=1;endArrow=block;endFill=1;strokeColor=#FFFFFF;" edge="1" parent="WIyWlLk6GJQsqaUBKTNV-1" source="I_57XaFRziNIr_0MsJy--0" target="I_57XaFRziNIr_0MsJy--1">
          <mxGeometry relative="1" as="geometry" />
        </mxCell>
        <mxCell id="I_57XaFRziNIr_0MsJy--0" value="Студенты регистрируются в реестре" style="rounded=1;whiteSpace=wrap;html=1;fontSize=14;glass=0;strokeWidth=1;shadow=0;spacingLeft=5;spacingRight=5;" vertex="1" parent="WIyWlLk6GJQsqaUBKTNV-1">
          <mxGeometry x="130" y="150" width="180" height="70" as="geometry" />
        </mxCell>
        <mxCell id="I_57XaFRziNIr_0MsJy--4" value="" style="edgeStyle=orthogonalEdgeStyle;rounded=0;orthogonalLoop=1;jettySize=auto;html=1;endArrow=block;endFill=1;strokeColor=#FFFFFF;" edge="1" parent="WIyWlLk6GJQsqaUBKTNV-1" source="I_57XaFRziNIr_0MsJy--1" target="I_57XaFRziNIr_0MsJy--3">
          <mxGeometry relative="1" as="geometry" />
        </mxCell>
        <mxCell id="I_57XaFRziNIr_0MsJy--1" value="Студенты проходят анкету" style="rounded=1;whiteSpace=wrap;html=1;fontSize=14;glass=0;strokeWidth=1;shadow=0;spacingLeft=5;spacingRight=5;" vertex="1" parent="WIyWlLk6GJQsqaUBKTNV-1">
          <mxGeometry x="130" y="250" width="180" height="70" as="geometry" />
        </mxCell>
        <mxCell id="I_57XaFRziNIr_0MsJy--10" style="edgeStyle=orthogonalEdgeStyle;rounded=0;orthogonalLoop=1;jettySize=auto;html=1;entryX=0;entryY=0.5;entryDx=0;entryDy=0;endArrow=block;endFill=1;strokeColor=#ffffff;" edge="1" parent="WIyWlLk6GJQsqaUBKTNV-1" source="I_57XaFRziNIr_0MsJy--3" target="I_57XaFRziNIr_0MsJy--5">
          <mxGeometry relative="1" as="geometry">
            <Array as="points">
              <mxPoint x="350" y="355" />
              <mxPoint x="350" y="185" />
            </Array>
          </mxGeometry>
        </mxCell>
        <mxCell id="I_57XaFRziNIr_0MsJy--3" value="Студенты объединяются в команды" style="rounded=1;whiteSpace=wrap;html=1;fontSize=14;glass=0;strokeWidth=1;shadow=0;spacingLeft=5;spacingRight=5;" vertex="1" parent="WIyWlLk6GJQsqaUBKTNV-1">
          <mxGeometry x="130" y="350" width="180" height="70" as="geometry" />
        </mxCell>
        <mxCell id="I_57XaFRziNIr_0MsJy--14" value="" style="edgeStyle=orthogonalEdgeStyle;rounded=0;orthogonalLoop=1;jettySize=auto;html=1;endArrow=block;endFill=1;strokeColor=#FFFFFF;" edge="1" parent="WIyWlLk6GJQsqaUBKTNV-1" source="I_57XaFRziNIr_0MsJy--5" target="I_57XaFRziNIr_0MsJy--13">
          <mxGeometry relative="1" as="geometry" />
        </mxCell>
        <mxCell id="I_57XaFRziNIr_0MsJy--5" value="Представитель команды рассылает презентацию о команде на проекты" style="rounded=1;whiteSpace=wrap;html=1;fontSize=14;glass=0;strokeWidth=1;shadow=0;spacingLeft=5;spacingRight=5;" vertex="1" parent="WIyWlLk6GJQsqaUBKTNV-1">
          <mxGeometry x="390" y="150" width="180" height="70" as="geometry" />
        </mxCell>
        <mxCell id="I_57XaFRziNIr_0MsJy--16" value="" style="edgeStyle=orthogonalEdgeStyle;rounded=0;orthogonalLoop=1;jettySize=auto;html=1;endArrow=block;endFill=1;strokeColor=#ffffff;" edge="1" parent="WIyWlLk6GJQsqaUBKTNV-1" source="I_57XaFRziNIr_0MsJy--13" target="I_57XaFRziNIr_0MsJy--15">
          <mxGeometry relative="1" as="geometry" />
        </mxCell>
        <mxCell id="I_57XaFRziNIr_0MsJy--19" style="edgeStyle=orthogonalEdgeStyle;rounded=0;orthogonalLoop=1;jettySize=auto;html=1;entryX=0;entryY=0.5;entryDx=0;entryDy=0;endArrow=block;endFill=1;strokeColor=#FFFFFF;" edge="1" parent="WIyWlLk6GJQsqaUBKTNV-1" source="I_57XaFRziNIr_0MsJy--13" target="I_57XaFRziNIr_0MsJy--18">
          <mxGeometry relative="1" as="geometry" />
        </mxCell>
        <mxCell id="I_57XaFRziNIr_0MsJy--13" value="Утверждаются команды-исполнители" style="rounded=1;whiteSpace=wrap;html=1;fontSize=14;glass=0;strokeWidth=1;shadow=0;spacingLeft=5;spacingRight=5;" vertex="1" parent="WIyWlLk6GJQsqaUBKTNV-1">
          <mxGeometry x="610" y="150" width="180" height="70" as="geometry" />
        </mxCell>
        <mxCell id="I_57XaFRziNIr_0MsJy--22" value="" style="edgeStyle=orthogonalEdgeStyle;rounded=0;orthogonalLoop=1;jettySize=auto;html=1;endArrow=block;endFill=1;strokeColor=#ffffff;" edge="1" parent="WIyWlLk6GJQsqaUBKTNV-1" source="I_57XaFRziNIr_0MsJy--15" target="I_57XaFRziNIr_0MsJy--21">
          <mxGeometry relative="1" as="geometry" />
        </mxCell>
        <mxCell id="I_57XaFRziNIr_0MsJy--15" value="Назначаются роли студентов в команде" style="rounded=1;whiteSpace=wrap;html=1;fontSize=14;glass=0;strokeWidth=1;shadow=0;spacingLeft=5;spacingRight=5;" vertex="1" parent="WIyWlLk6GJQsqaUBKTNV-1">
          <mxGeometry x="860" y="90" width="200" height="70" as="geometry" />
        </mxCell>
        <mxCell id="I_57XaFRziNIr_0MsJy--23" style="edgeStyle=orthogonalEdgeStyle;rounded=0;orthogonalLoop=1;jettySize=auto;html=1;endArrow=block;endFill=1;entryX=0;entryY=0.5;entryDx=0;entryDy=0;strokeColor=#FFFFFF;" edge="1" parent="WIyWlLk6GJQsqaUBKTNV-1" source="I_57XaFRziNIr_0MsJy--18" target="I_57XaFRziNIr_0MsJy--21">
          <mxGeometry relative="1" as="geometry">
            <mxPoint x="1110" y="180" as="targetPoint" />
          </mxGeometry>
        </mxCell>
        <mxCell id="I_57XaFRziNIr_0MsJy--18" value="&lt;div style=&quot;font-size: 14px;&quot;&gt;Предоставляется информация о сервисах для контроля хода проекта&lt;/div&gt;" style="rounded=1;whiteSpace=wrap;html=1;fontSize=14;glass=0;strokeWidth=1;shadow=0;spacingLeft=5;spacingRight=5;" vertex="1" parent="WIyWlLk6GJQsqaUBKTNV-1">
          <mxGeometry x="860" y="210" width="200" height="70" as="geometry" />
        </mxCell>
        <mxCell id="I_57XaFRziNIr_0MsJy--21" value="Данные собираются, анализируются и визуализируются&amp;nbsp;" style="rounded=1;whiteSpace=wrap;html=1;fontSize=14;glass=0;strokeWidth=1;shadow=0;spacingLeft=5;spacingRight=5;" vertex="1" parent="WIyWlLk6GJQsqaUBKTNV-1">
          <mxGeometry x="1130" y="130" width="180" height="110" as="geometry" />
        </mxCell>
      </root>
    </mxGraphModel>
  </diagram>
</mxfile>
